<?xml version="1.0" encoding="UTF-8" standalone="no" ?>
<!DOCTYPE svg PUBLIC "-//W3C//DTD SVG 1.1//EN" "http://www.w3.org/Graphics/SVG/1.1/DTD/svg11.dtd">
<svg xmlns="http://www.w3.org/2000/svg" xmlns:xlink="http://www.w3.org/1999/xlink" version="1.1" width="172.51702320399096" height="225.7706472453052" viewBox="152.29842188165725 64.58930997373972 172.51702320399096 225.7706472453052" xml:space="preserve">
<desc>Created with Fabric.js 4.6.0</desc>
<defs>
</defs>
<g transform="matrix(1.12 0 0 0.94 238.56 177.47)" id="RQ1xH2Lh7ZvT82_zFecMj"  >
<path style="stroke: rgb(0,0,0); stroke-width: 1; stroke-dasharray: none; stroke-linecap: butt; stroke-dashoffset: 0; stroke-linejoin: miter; stroke-miterlimit: 4; fill: rgb(255,255,255); fill-opacity: 0; fill-rule: nonzero; opacity: 1;" vector-effect="non-scaling-stroke"  transform=" translate(0, 0)" d="M -75.60358 -118.72741 L 24.820600000000013 -119.49459 L 76.16770000000001 -52.511430000000004 L 76.40382000000001 119.49458 L -76.40381999999998 119.49458 z" stroke-linecap="round" />
</g>
<g transform="matrix(1.52 0 0 1.4 295.64 96.49)" id="yXwWs9do2LoRu8IGwZGtz"  >
<path style="stroke: rgb(0,0,0); stroke-width: 1; stroke-dasharray: none; stroke-linecap: butt; stroke-dashoffset: 0; stroke-linejoin: miter; stroke-miterlimit: 4; fill: rgb(255,255,255); fill-opacity: 0; fill-rule: nonzero; opacity: 1;" vector-effect="non-scaling-stroke"  transform=" translate(0, 0)" d="M -18.03833 -21.646 L -18.03833 21.646 L 18.03833 21.646 z" stroke-linecap="round" />
</g>
<g transform="matrix(1 0 0 1 264.71 167.76)" id="3MhH2D1H8bhIW-PYycxkf"  >
<path style="stroke: rgb(0,0,0); stroke-width: 1; stroke-dasharray: none; stroke-linecap: butt; stroke-dashoffset: 0; stroke-linejoin: miter; stroke-miterlimit: 4; fill: none; fill-rule: nonzero; opacity: 1;" vector-effect="non-scaling-stroke"  transform=" translate(-14.79, -14.79)" d="M 0 0 L 29.58286 0 L 29.58286 29.58286 L 0 29.58286 z" stroke-linecap="round" />
</g>
<g transform="matrix(1 0 0 1 264.71 244.71)" id="l0IMteGh4e1Bpa-Gj0meF"  >
<path style="stroke: rgb(0,0,0); stroke-width: 1; stroke-dasharray: none; stroke-linecap: butt; stroke-dashoffset: 0; stroke-linejoin: miter; stroke-miterlimit: 4; fill: none; fill-rule: nonzero; opacity: 1;" vector-effect="non-scaling-stroke"  transform=" translate(-14.79, -14.79)" d="M 0 0 L 29.58286 0 L 29.58286 29.58286 L 0 29.58286 z" stroke-linecap="round" />
</g>
<g transform="matrix(1 0 0 1 195.29 204.71)" id="E8FQ5hI1yMuYmKoq4bT1w"  >
<path style="stroke: rgb(0,0,0); stroke-width: 1; stroke-dasharray: none; stroke-linecap: butt; stroke-dashoffset: 0; stroke-linejoin: miter; stroke-miterlimit: 4; fill: none; fill-rule: nonzero; opacity: 1;" vector-effect="non-scaling-stroke"  transform=" translate(-14.79, -14.79)" d="M 0 0 L 29.58286 0 L 29.58286 29.58286 L 0 29.58286 z" stroke-linecap="round" />
</g>
<g transform="matrix(1 0 0 1 230.53 185.79)" id="tfw8fzoTmbTtgvAjdmVbK"  >
<path style="stroke: rgb(0,0,0); stroke-width: 1; stroke-dasharray: none; stroke-linecap: butt; stroke-dashoffset: 0; stroke-linejoin: miter; stroke-miterlimit: 4; fill: rgb(255,255,255); fill-opacity: 0; fill-rule: nonzero; opacity: 1;" vector-effect="non-scaling-stroke"  transform=" translate(0, 0)" d="M -19.4814 19.84216 C -19.4814 19.84216 9.7407 -9.92109 19.4814 -19.842170000000003" stroke-linecap="round" />
</g>
<g transform="matrix(1 0 0 1 230.53 225.12)" id="SF8YfanqwBX9hDQyH9nMN"  >
<path style="stroke: rgb(0,0,0); stroke-width: 1; stroke-dasharray: none; stroke-linecap: butt; stroke-dashoffset: 0; stroke-linejoin: miter; stroke-miterlimit: 4; fill: rgb(255,255,255); fill-opacity: 0; fill-rule: nonzero; opacity: 1;" vector-effect="non-scaling-stroke"  transform=" translate(0, 0)" d="M -19.4814 -18.75986 L 19.4814 18.759870000000003" stroke-linecap="round" />
</g>
</svg>